%
M48
M72
T01C0.0197
T02C0.0315
T03C0.0320
T04C0.0360
T05C0.0400
T06C0.1300
%
T01
X12475Y9555
T02
X10850Y9180
X9850Y8680
X8975Y9805
X7350Y9180
X5850Y8680
X3475Y9805
X23600Y10930
X23600Y13930
T03
X22725Y13555
X21600Y14180
X20600Y14180
X19600Y14180
X18600Y14180
X17600Y14180
X16600Y14180
X15600Y14180
X14600Y14180
X13600Y14180
X12600Y14180
X11600Y15680
X10600Y15680
X9600Y15680
X8600Y16930
X7600Y15680
X6100Y16180
X4100Y16430
X2600Y16180
X1600Y16680
X1600Y18680
X2600Y19180
X4100Y19430
X6100Y19180
X7600Y18680
X8600Y19930
X9600Y18680
X10600Y18680
X11600Y18680
X13100Y19305
X14100Y19305
X15100Y19555
X16100Y19805
X19475Y18055
X20475Y18055
X21475Y18055
X23850Y17930
X23850Y18930
X23850Y19930
X23850Y20930
X23850Y21930
X23850Y22930
X23850Y23930
X26850Y23930
X26850Y22930
X26850Y21930
X26850Y20930
X26850Y19930
X26850Y18930
X26850Y17930
X26850Y16930
X26850Y15930
X26850Y14930
X25350Y13680
X25350Y12680
X25350Y11680
X22725Y11555
X21600Y11180
X20600Y11180
X19600Y11180
X18600Y11180
X17600Y11180
X16600Y11180
X15600Y11180
X14600Y11180
X13600Y11180
X12600Y11180
X10350Y11180
X9350Y11180
X8350Y11180
X7350Y11180
X6350Y11180
X5350Y11180
X4350Y11180
X3350Y11180
X2350Y11180
X1350Y11180
X1350Y14180
X2350Y14180
X3350Y14180
X4350Y14180
X5350Y14180
X6350Y14180
X7350Y14180
X8350Y14180
X9350Y14180
X10350Y14180
X13100Y16305
X14100Y16305
X15100Y16555
X16100Y16805
X23850Y16930
X23850Y15930
X23850Y14930
T04
X11475Y13930
X11475Y10930
T05
X4870Y6680
X5960Y6680
X7050Y6680
X8130Y6680
X9220Y6680
X10310Y6680
X11390Y6680
X12480Y6680
X13570Y6680
X14650Y6680
X15740Y6680
X16830Y6680
X17370Y7680
X16280Y7680
X15200Y7680
X14110Y7680
X13020Y7680
X11940Y7680
X10850Y7680
X9760Y7680
X8680Y7680
X7590Y7680
X6500Y7680
X5420Y7680
X4330Y7680
X21600Y9305
X22600Y9305
X23600Y9305
X28850Y12805
X29850Y12805
X30850Y12805
X30975Y14930
X29975Y14930
X28975Y14930
X28850Y17055
X29850Y17055
X30850Y17055
X20975Y19930
X19975Y19930
X18975Y19930
X15350Y21430
X14350Y21430
X13350Y21430
X12350Y21430
X11350Y21430
X10350Y21430
X9350Y21430
X8350Y21430
X7350Y21430
X6350Y21430
X5350Y21430
X4350Y21430
X3350Y21430
X3350Y22430
X4350Y22430
X5350Y22430
X6350Y22430
X7350Y22430
X8350Y22430
X9350Y22430
X10350Y22430
X11350Y22430
X12350Y22430
X13350Y22430
X14350Y22430
X15350Y22430
T06
X20110Y7180
X1590Y7180
M30
